<?xml version="1.0" encoding="utf-8"?>
<!-- Generator: Adobe Illustrator 17.1.0, SVG Export Plug-In . SVG Version: 6.00 Build 0)  -->
<!DOCTYPE svg PUBLIC "-//W3C//DTD SVG 1.1//EN" "http://www.w3.org/Graphics/SVG/1.1/DTD/svg11.dtd">
<svg version="1.1" id="Calque_1" xmlns="http://www.w3.org/2000/svg" xmlns:xlink="http://www.w3.org/1999/xlink" x="0px" y="0px"
	 viewBox="0 0 32 32" enable-background="new 0 0 32 32" xml:space="preserve">
<path fill="#AAAAAA" d="M23,25.2c-0.6-0.1-0.6-1.7-0.6-1.7s1.7-1.7,2.1-4c1,0,1.6-2.4,0.6-3.3c0-0.9,1.3-7.1-5.1-7.1
	c-6.4,0-5.2,6.2-5.1,7.1c-1,0.9-0.4,3.3,0.6,3.3c0.4,2.3,2.1,4,2.1,4s0,1.6-0.6,1.7c-1.9,0.3-9,3.4-9,6.8h24
	C32,28.6,24.9,25.5,23,25.2L23,25.2z M10.8,25.7c1.4-0.8,3.1-1.6,4.4-2.1c-0.5-0.7-1-1.7-1.4-2.8c-0.5-0.4-0.9-1-1.1-1.6
	c-0.3-0.7-0.3-1.5-0.3-2.2c0.1-0.5,0.2-1,0.4-1.4c-0.1-1.5-0.2-4.3,1.6-6.4c0.7-0.8,1.6-1.4,2.7-1.7C17,5.4,16,3.1,12,3.1
	c-6.4,0-5.2,6.2-5.1,7.1c-1,0.9-0.4,3.3,0.6,3.3c0.4,2.3,2.1,4,2.1,4s0,1.6-0.6,1.7c-1.9,0.3-9,3.4-9,6.8h10.3
	C10.4,25.9,10.6,25.8,10.8,25.7L10.8,25.7z"/>
</svg>
