<?xml version="1.0" encoding="utf-8"?>
<!-- Generator: Adobe Illustrator 17.1.0, SVG Export Plug-In . SVG Version: 6.00 Build 0)  -->
<!DOCTYPE svg PUBLIC "-//W3C//DTD SVG 1.1//EN" "http://www.w3.org/Graphics/SVG/1.1/DTD/svg11.dtd">
<svg version="1.1" id="Layer_1" xmlns="http://www.w3.org/2000/svg" xmlns:xlink="http://www.w3.org/1999/xlink" x="0px" y="0px"
	 viewBox="0 0 418.4 387" enable-background="new 0 0 418.4 387" xml:space="preserve">
<path fill="#333333" d="M295.9,360l26-40.5l33-21.8v5l3-2v-4l8.6,2l4.9-2l4.4,8l7.1-8l7.7-61.7l-11.3-26l-1-17.3l8-7l-21-23.3
	l3.7-10.7l-16.3-13.3l11.3-2.5l-39.7-35.2h17l-30.3-9.4l-14.3-11.6h-21.3l11.3-10.1l-16-2.5L268,53.1l-13.2,1.6v6L225.9,42l-51.1-7
	v5.7L138,55.4l4.2,4.7l-9.6,7.7L116.1,63l6,7.7l-24,7l4.7,8l-4.7,11.7L78.8,96l4.7,5l-18.7,10.3l-9.7,15.3l11.3,3l-19.7,21v27
	l-6.1,9.7l3.9,27.7L34,224l6.7,8.3l-6.6,15l11,5l5.3,37.7l8.7,23.3c0,0,26.3,38,26.3,43c-0.7-34-5.3-86.3-5.3-86.3l2.3-7.5l13-11.2
	l-0.3-4.2l20-5.3l3.4,2l38.5-6.5l-1.8,8.8l50.5-21l2.9,2.5L191,241.3l3.5,5.1l56.1-8.5l6.1,3.4l-10.5,11.8l12-4.5l2.2,2.9l-11.6,9.9
	l18.6-3.6c0,0,9.4,12.2,17.5,26.2c8.5,14.9,16.7,30.8,16.7,30.8L295.9,360z"/>
<g>
	<g>
		<g enable-background="new    ">
			<g>
				<defs>
					<polygon id="SVGID_1_" points="72.1,363.6 63.6,281.5 304.8,272.8 313.3,355 					"/>
				</defs>
				<clipPath id="SVGID_2_">
					<use xlink:href="#SVGID_1_"  overflow="visible"/>
				</clipPath>
				<g clip-path="url(#SVGID_2_)">
					<g>
						<g>
							<g>
								<path fill="#333333" d="M123.4,356.3c-34.5,1.2-40.3-17.5-42.6-39.7c-1.9-18.4,1.9-30.3,38.6-31.6
									c33.6-1.2,47.1,8.5,48.6,23C170.5,331.6,160.2,355,123.4,356.3 M260.9,351.4c-36.8,1.3-51.8-21.2-54.3-44.8
									c-1.5-14.5,9.9-25.1,43.5-26.3c36.8-1.3,43,10.3,44.9,28.6C297.4,331.2,295.5,350.1,260.9,351.4 M252.6,274.7
									c-0.4,0-0.7,0-1.1,0l-0.2,0c-0.6,0-1.1,0-1.7,0c-7.2,0.3-13.4,1-18.7,2l-0.2,0c-0.1,0-0.3,0.1-0.4,0.1
									c-3.9,0.8-7.3,1.8-10.3,2.9c-10.4,3.6-20.1,8.2-34.7,8.7c-14.5,0.5-25.2-3.3-36.2-6.1c-3.2-0.9-6.8-1.7-10.8-2.2
									c-0.1,0-0.3,0-0.4-0.1l-0.2,0c-5.5-0.7-11.8-0.9-19-0.7c-0.6,0-1.2,0-1.7,0.1l-0.2,0c-0.3,0-0.7,0-1.1,0
									c-10.4,0.4-37.9,1.5-51,9.4c-1.2,0.7,1.7,16.8,2,17.5c0.5,1.1,5.3,8.5,11.7,26.7l0,0c4.8,16.9,16.1,29.7,45.4,28.7
									c19.7-0.7,34.1-7.7,42.2-19.8l0.1-0.1c12.8-18.3,4.5-36.3,20.9-36.9c16.3-0.6,11.8,17.9,28.4,35.1l0.1,0.1
									c10.5,11.4,26.3,17.3,46,16.6c29.3-1,37.9-14.6,39.1-31.7l0,0c2.6-18.5,5.8-26.2,6.1-27.3c0.2-0.6-0.3-16.8-1.6-17.5
									C290.5,273.5,263,274.3,252.6,274.7"/>
							</g>
						</g>
					</g>
				</g>
			</g>
		</g>
	</g>
</g>
<circle fill="#333333" cx="118.6" cy="327.1" r="8.5"/>
<circle fill="#333333" cx="243.6" cy="324.1" r="8.5"/>
</svg>
